<svg width="16" height="22" viewBox="0 0 16 22" fill="none" xmlns="http://www.w3.org/2000/svg">
<path d="M9.12876 11L15.2488 5.56025C15.3624 5.45915 15.4425 5.32592 15.4787 5.17821C15.5148 5.0305 15.5052 4.8753 15.4511 4.73319C15.397 4.59107 15.301 4.46876 15.1758 4.38246C15.0506 4.29617 14.9021 4.24997 14.75 4.25H12.5V0.5H11V5.75H12.7775L8.00001 9.9965L3.22251 5.75H5.00001V0.5H3.50001V4.25H1.25001C1.09795 4.24997 0.949468 4.29617 0.824262 4.38246C0.699056 4.46876 0.603039 4.59107 0.548942 4.73319C0.494846 4.8753 0.485226 5.0305 0.521359 5.17821C0.557491 5.32592 0.637669 5.45915 0.75126 5.56025L6.87126 11L0.75126 16.4398C0.637669 16.5408 0.557491 16.6741 0.521359 16.8218C0.485226 16.9695 0.494846 17.1247 0.548942 17.2668C0.603039 17.4089 0.699056 17.5312 0.824262 17.6175C0.949468 17.7038 1.09795 17.75 1.25001 17.75H3.50001V21.5H5.00001V16.25H3.22251L8.00001 12.0035L12.7775 16.25H11V21.5H12.5V17.75H14.75C14.902 17.7499 15.0504 17.7036 15.1755 17.6172C15.3006 17.5309 15.3965 17.4085 15.4505 17.2665C15.5045 17.1244 15.514 16.9692 15.4779 16.8216C15.4417 16.674 15.3616 16.5408 15.248 16.4398L9.12876 11Z" fill="#222831"/>
</svg>
