<svg width="217" height="217" viewBox="0 0 217 217" fill="none" xmlns="http://www.w3.org/2000/svg">
<path d="M13.5935 210.784C12.7424 209.198 11.6879 207.771 10.4588 206.542C9.22972 205.312 7.80269 204.258 6.2163 203.407L0 200.071L6.2163 196.735C7.80269 195.884 9.22972 194.829 10.4588 193.6C11.6879 192.371 12.7428 190.944 13.5935 189.357L16.9294 183.141L20.2654 189.357C21.1164 190.944 22.1709 192.371 23.4 193.6C24.6291 194.829 26.0562 195.884 27.6425 196.735L33.8588 200.071L27.6425 203.407C26.0562 204.258 24.6291 205.312 23.4 206.541C22.1709 207.77 21.116 209.197 20.2654 210.784L16.9294 217L13.5935 210.784Z" fill="#FFE44C"/>
<path d="M196.735 27.643C195.884 26.0566 194.829 24.6295 193.6 23.4004C192.371 22.1713 190.944 21.1164 189.357 20.2658L183.141 16.9294L189.357 13.5935C190.944 12.7424 192.371 11.6879 193.6 10.4588C194.829 9.22972 195.884 7.80269 196.735 6.2163L200.071 0L203.406 6.2163C204.258 7.80269 205.312 9.22972 206.541 10.4588C207.77 11.6879 209.197 12.7428 210.784 13.5935L217 16.9294L210.784 20.2654C209.197 21.1164 207.77 22.1709 206.541 23.4C205.312 24.6291 204.257 26.0562 203.406 27.6425L200.071 33.8588L196.735 27.643Z" fill="#FFE44C"/>
<path d="M108.737 189.914L88.4539 198.093L73.7161 181.942L51.9029 180.474L45.6336 159.527L26.5982 148.769L30.0384 127.178L17.588 109.21L30.0384 91.2415L26.5982 69.6512L45.6345 58.8927L51.9033 37.9462L73.7165 36.4777L88.4539 20.3273L108.737 28.505L129.02 20.3273L143.757 36.4781L165.571 37.9462L171.84 58.8927L190.876 69.6512L187.435 91.2415L199.885 109.21L187.435 127.178L190.876 148.769L171.839 159.527L165.57 180.474L143.757 181.943L129.02 198.093L108.737 189.914Z" fill="#FFA000"/>
<path d="M108.737 173.806C73.1177 173.806 44.1405 144.828 44.1405 109.21C44.1405 73.5911 73.1181 44.6135 108.737 44.6135C144.355 44.6135 173.333 73.5911 173.333 109.21C173.333 144.828 144.355 173.806 108.737 173.806Z" fill="#FFC200"/>
<path d="M108.737 154.823C83.5854 154.823 63.1238 134.361 63.1238 109.211C63.1238 84.0597 83.5858 63.5977 108.737 63.5977C133.888 63.5977 154.35 84.0597 154.35 109.211C154.35 134.361 133.888 154.823 108.737 154.823Z" fill="#FFE44C"/>
<path d="M108.737 135.144C94.4367 135.144 82.8026 123.51 82.8026 109.21C82.8026 94.9101 94.4367 83.276 108.737 83.276C123.037 83.276 134.671 94.9101 134.671 109.21C134.671 123.51 123.037 135.144 108.737 135.144Z" fill="#FFFD80"/>
<path d="M24.78 22.034C24.1926 21.2474 23.4962 20.551 22.7096 19.9636L18.6442 16.9299L22.7096 13.8961C23.4962 13.3087 24.1926 12.6123 24.78 11.8257L27.8138 7.76031L30.8475 11.8257C31.435 12.6123 32.1313 13.3087 32.9179 13.8961L36.9833 16.9299L32.9179 19.9636C32.1313 20.551 31.435 21.2474 30.8475 22.034L27.8138 26.0994L24.78 22.034Z" fill="#FFE44C"/>
<path d="M138.983 122.489C138.698 122.155 138.383 121.84 138.049 121.555L134.671 118.674L138.049 115.793C138.383 115.508 138.698 115.194 138.983 114.859L141.864 111.482L144.744 114.859C145.03 115.194 145.344 115.508 145.678 115.793L149.056 118.674L145.678 121.555C145.344 121.84 145.03 122.155 144.744 122.489L141.864 125.867L138.983 122.489Z" fill="white"/>
<path d="M197.664 201.992C197.378 201.658 197.064 201.343 196.73 201.058L193.352 198.177L196.73 195.297C197.064 195.011 197.378 194.697 197.664 194.362L200.544 190.985L203.425 194.362C203.71 194.697 204.025 195.011 204.359 195.297L207.737 198.177L204.359 201.058C204.025 201.343 203.71 201.658 203.425 201.992L200.544 205.37L197.664 201.992Z" fill="#FFE44C"/>
</svg>
