<svg width="22" height="18" viewBox="0 0 22 18" fill="none" xmlns="http://www.w3.org/2000/svg">
<path d="M16.73 4.73C17.0208 4.43988 17.3787 4.22591 17.7719 4.10701C18.1652 3.98811 18.5816 3.96794 18.9845 4.04828C19.3874 4.12863 19.7642 4.30702 20.0817 4.56767C20.3993 4.82832 20.6477 5.1632 20.805 5.54269C20.9623 5.92218 21.0236 6.33459 20.9836 6.74344C20.9436 7.1523 20.8035 7.54499 20.5756 7.8868C20.3477 8.2286 20.0391 8.50898 19.6771 8.70314C19.3151 8.89731 18.9108 8.99926 18.5 9H1M8.59 1.59C8.82231 1.35631 9.10875 1.18364 9.42387 1.08734C9.73899 0.991036 10.073 0.974084 10.3963 1.03799C10.7195 1.10189 11.022 1.24468 11.2768 1.45364C11.5315 1.66261 11.7307 1.93129 11.8566 2.23579C11.9825 2.54029 12.0313 2.87119 11.9985 3.19906C11.9657 3.52693 11.8524 3.84162 11.6687 4.11516C11.4849 4.38869 11.2365 4.61259 10.9454 4.76696C10.6542 4.92133 10.3295 5.00138 10 5H1L8.59 1.59ZM11.59 16.41C11.8223 16.6437 12.1088 16.8164 12.4239 16.9127C12.739 17.009 13.073 17.0259 13.3963 16.962C13.7195 16.8981 14.022 16.7553 14.2768 16.5464C14.5315 16.3374 14.7307 16.0687 14.8566 15.7642C14.9825 15.4597 15.0313 15.1288 14.9985 14.8009C14.9657 14.4731 14.8524 14.1584 14.6687 13.8848C14.4849 13.6113 14.2365 13.3874 13.9454 13.233C13.6542 13.0787 13.3295 12.9986 13 13H1L11.59 16.41Z" stroke="#00A3FF" stroke-width="2" stroke-linecap="round" stroke-linejoin="round"/>
</svg>
